<mxfile host="app.diagrams.net" agent="Mozilla/5.0 (Macintosh; Intel Mac OS X 10_15_7) AppleWebKit/537.36 (KHTML, like Gecko) Chrome/138.0.0.0 Safari/537.36" version="27.2.0">
  <diagram name="Page-1" id="JRXHR4MzE8_dbQXKg1bA">
    <mxGraphModel dx="2497" dy="2109" grid="1" gridSize="10" guides="1" tooltips="1" connect="1" arrows="1" fold="1" page="1" pageScale="1" pageWidth="850" pageHeight="1100" math="0" shadow="0">
      <root>
        <mxCell id="0" />
        <mxCell id="1" parent="0" />
        <mxCell id="4RNeQEIGDZSL15L13sz--38" value="&lt;div&gt;ibm-verify-bootstrap argocd application&lt;/div&gt;" style="rounded=0;whiteSpace=wrap;html=1;verticalAlign=top;" vertex="1" parent="1">
          <mxGeometry x="-180" y="100" width="1020" height="1190" as="geometry" />
        </mxCell>
        <mxCell id="4RNeQEIGDZSL15L13sz--71" value="Remote LDAP scenario" style="rounded=0;whiteSpace=wrap;html=1;dashed=1;align=right;verticalAlign=top;" vertex="1" parent="1">
          <mxGeometry x="-170" y="830" width="620" height="440" as="geometry" />
        </mxCell>
        <mxCell id="4RNeQEIGDZSL15L13sz--54" value="verify-directory argocd application&lt;div&gt;&lt;br&gt;&lt;/div&gt;" style="rounded=0;whiteSpace=wrap;html=1;verticalAlign=top;" vertex="1" parent="1">
          <mxGeometry x="-150" y="860" width="190" height="400" as="geometry" />
        </mxCell>
        <mxCell id="4RNeQEIGDZSL15L13sz--46" value="&lt;div&gt;demo argocd application&lt;/div&gt;" style="rounded=0;whiteSpace=wrap;html=1;verticalAlign=top;" vertex="1" parent="1">
          <mxGeometry x="-150" y="310" width="190" height="230" as="geometry" />
        </mxCell>
        <mxCell id="4RNeQEIGDZSL15L13sz--18" value="runtime argocd application&lt;div&gt;&lt;br&gt;&lt;/div&gt;" style="rounded=0;whiteSpace=wrap;html=1;verticalAlign=top;" vertex="1" parent="1">
          <mxGeometry x="100" y="580" width="190" height="170" as="geometry" />
        </mxCell>
        <mxCell id="4RNeQEIGDZSL15L13sz--14" value="config argocd application&lt;div&gt;&lt;br&gt;&lt;/div&gt;" style="rounded=0;whiteSpace=wrap;html=1;verticalAlign=top;" vertex="1" parent="1">
          <mxGeometry x="620" y="140" width="190" height="610" as="geometry" />
        </mxCell>
        <mxCell id="4RNeQEIGDZSL15L13sz--11" value="verify-access-operator argocd application&lt;div&gt;&lt;br&gt;&lt;/div&gt;" style="rounded=0;whiteSpace=wrap;html=1;verticalAlign=top;" vertex="1" parent="1">
          <mxGeometry x="360" y="410" width="190" height="340" as="geometry" />
        </mxCell>
        <mxCell id="4RNeQEIGDZSL15L13sz--1" value="config&lt;br&gt;PVC" style="shape=cylinder3;whiteSpace=wrap;html=1;boundedLbl=1;backgroundOutline=1;size=15;" vertex="1" parent="1">
          <mxGeometry x="685" y="625" width="60" height="80" as="geometry" />
        </mxCell>
        <mxCell id="4RNeQEIGDZSL15L13sz--5" value="" style="edgeStyle=orthogonalEdgeStyle;rounded=0;orthogonalLoop=1;jettySize=auto;html=1;" edge="1" parent="1" source="4RNeQEIGDZSL15L13sz--3" target="4RNeQEIGDZSL15L13sz--1">
          <mxGeometry relative="1" as="geometry" />
        </mxCell>
        <mxCell id="4RNeQEIGDZSL15L13sz--17" value="Snapshot publish" style="edgeStyle=orthogonalEdgeStyle;rounded=0;orthogonalLoop=1;jettySize=auto;html=1;entryX=1;entryY=0.5;entryDx=0;entryDy=0;" edge="1" parent="1" source="4RNeQEIGDZSL15L13sz--3" target="4RNeQEIGDZSL15L13sz--9">
          <mxGeometry relative="1" as="geometry" />
        </mxCell>
        <mxCell id="4RNeQEIGDZSL15L13sz--3" value="Config service&lt;div&gt;deployment&lt;/div&gt;" style="shape=process;whiteSpace=wrap;html=1;backgroundOutline=1;" vertex="1" parent="1">
          <mxGeometry x="655" y="490" width="120" height="60" as="geometry" />
        </mxCell>
        <mxCell id="4RNeQEIGDZSL15L13sz--22" value="" style="edgeStyle=orthogonalEdgeStyle;rounded=0;orthogonalLoop=1;jettySize=auto;html=1;" edge="1" parent="1" source="4RNeQEIGDZSL15L13sz--6" target="4RNeQEIGDZSL15L13sz--21">
          <mxGeometry relative="1" as="geometry" />
        </mxCell>
        <mxCell id="4RNeQEIGDZSL15L13sz--6" value="Config service&lt;br&gt;route" style="rounded=0;whiteSpace=wrap;html=1;" vertex="1" parent="1">
          <mxGeometry x="655" y="180" width="120" height="60" as="geometry" />
        </mxCell>
        <mxCell id="4RNeQEIGDZSL15L13sz--62" value="instantiate" style="edgeStyle=orthogonalEdgeStyle;rounded=0;orthogonalLoop=1;jettySize=auto;html=1;entryX=1;entryY=0.25;entryDx=0;entryDy=0;dashed=1;dashPattern=8 8;" edge="1" parent="1" source="4RNeQEIGDZSL15L13sz--9" target="4RNeQEIGDZSL15L13sz--25">
          <mxGeometry relative="1" as="geometry">
            <Array as="points">
              <mxPoint x="310" y="520" />
              <mxPoint x="310" y="655" />
            </Array>
          </mxGeometry>
        </mxCell>
        <mxCell id="4RNeQEIGDZSL15L13sz--9" value="Verify Access&lt;br&gt;operator" style="shape=process;whiteSpace=wrap;html=1;backgroundOutline=1;" vertex="1" parent="1">
          <mxGeometry x="395" y="470" width="120" height="100" as="geometry" />
        </mxCell>
        <mxCell id="4RNeQEIGDZSL15L13sz--13" value="" style="edgeStyle=orthogonalEdgeStyle;rounded=0;orthogonalLoop=1;jettySize=auto;html=1;" edge="1" parent="1" source="4RNeQEIGDZSL15L13sz--12" target="4RNeQEIGDZSL15L13sz--9">
          <mxGeometry relative="1" as="geometry" />
        </mxCell>
        <mxCell id="4RNeQEIGDZSL15L13sz--12" value="Verify Access operator subscription" style="rounded=0;whiteSpace=wrap;html=1;" vertex="1" parent="1">
          <mxGeometry x="395" y="635" width="120" height="60" as="geometry" />
        </mxCell>
        <mxCell id="4RNeQEIGDZSL15L13sz--19" value="wrp argocd application&lt;div&gt;&lt;br&gt;&lt;/div&gt;" style="rounded=0;whiteSpace=wrap;html=1;verticalAlign=top;" vertex="1" parent="1">
          <mxGeometry x="100" y="140" width="190" height="400" as="geometry" />
        </mxCell>
        <mxCell id="4RNeQEIGDZSL15L13sz--24" value="snapshot get" style="edgeStyle=orthogonalEdgeStyle;rounded=0;orthogonalLoop=1;jettySize=auto;html=1;entryX=0;entryY=0.25;entryDx=0;entryDy=0;exitX=1;exitY=0.25;exitDx=0;exitDy=0;" edge="1" parent="1" source="4RNeQEIGDZSL15L13sz--20" target="4RNeQEIGDZSL15L13sz--9">
          <mxGeometry relative="1" as="geometry" />
        </mxCell>
        <mxCell id="4RNeQEIGDZSL15L13sz--48" value="junction" style="edgeStyle=orthogonalEdgeStyle;rounded=0;orthogonalLoop=1;jettySize=auto;html=1;" edge="1" parent="1" source="4RNeQEIGDZSL15L13sz--20" target="4RNeQEIGDZSL15L13sz--47">
          <mxGeometry relative="1" as="geometry" />
        </mxCell>
        <mxCell id="4RNeQEIGDZSL15L13sz--20" value="web reverse proxy&lt;br&gt;&lt;div&gt;instance&lt;/div&gt;" style="shape=process;whiteSpace=wrap;html=1;backgroundOutline=1;" vertex="1" parent="1">
          <mxGeometry x="135" y="400" width="120" height="60" as="geometry" />
        </mxCell>
        <mxCell id="4RNeQEIGDZSL15L13sz--69" value="ldap" style="edgeStyle=orthogonalEdgeStyle;rounded=0;orthogonalLoop=1;jettySize=auto;html=1;exitX=0;exitY=0.75;exitDx=0;exitDy=0;entryX=1;entryY=0.25;entryDx=0;entryDy=0;" edge="1" parent="1" source="4RNeQEIGDZSL15L13sz--20" target="4RNeQEIGDZSL15L13sz--65">
          <mxGeometry relative="1" as="geometry" />
        </mxCell>
        <mxCell id="4RNeQEIGDZSL15L13sz--23" value="" style="edgeStyle=orthogonalEdgeStyle;rounded=0;orthogonalLoop=1;jettySize=auto;html=1;" edge="1" parent="1" source="4RNeQEIGDZSL15L13sz--21" target="4RNeQEIGDZSL15L13sz--3">
          <mxGeometry relative="1" as="geometry" />
        </mxCell>
        <mxCell id="4RNeQEIGDZSL15L13sz--21" value="Config service&lt;br&gt;service" style="rounded=0;whiteSpace=wrap;html=1;" vertex="1" parent="1">
          <mxGeometry x="655" y="330" width="120" height="60" as="geometry" />
        </mxCell>
        <mxCell id="4RNeQEIGDZSL15L13sz--26" value="snapshot get" style="edgeStyle=orthogonalEdgeStyle;rounded=0;orthogonalLoop=1;jettySize=auto;html=1;entryX=0;entryY=0.75;entryDx=0;entryDy=0;exitX=1;exitY=0.75;exitDx=0;exitDy=0;" edge="1" parent="1" source="4RNeQEIGDZSL15L13sz--25" target="4RNeQEIGDZSL15L13sz--9">
          <mxGeometry relative="1" as="geometry" />
        </mxCell>
        <mxCell id="4RNeQEIGDZSL15L13sz--70" style="edgeStyle=orthogonalEdgeStyle;rounded=0;orthogonalLoop=1;jettySize=auto;html=1;entryX=1;entryY=0.25;entryDx=0;entryDy=0;" edge="1" parent="1" source="4RNeQEIGDZSL15L13sz--25" target="4RNeQEIGDZSL15L13sz--65">
          <mxGeometry relative="1" as="geometry" />
        </mxCell>
        <mxCell id="4RNeQEIGDZSL15L13sz--25" value="runtime&lt;br&gt;&lt;div&gt;instance&lt;/div&gt;" style="shape=process;whiteSpace=wrap;html=1;backgroundOutline=1;" vertex="1" parent="1">
          <mxGeometry x="135" y="640" width="120" height="60" as="geometry" />
        </mxCell>
        <mxCell id="4RNeQEIGDZSL15L13sz--27" value="" style="edgeStyle=orthogonalEdgeStyle;rounded=0;orthogonalLoop=1;jettySize=auto;html=1;" edge="1" parent="1" source="4RNeQEIGDZSL15L13sz--28" target="4RNeQEIGDZSL15L13sz--29">
          <mxGeometry relative="1" as="geometry" />
        </mxCell>
        <mxCell id="4RNeQEIGDZSL15L13sz--28" value="web reverse proxy&lt;br&gt;route" style="rounded=0;whiteSpace=wrap;html=1;" vertex="1" parent="1">
          <mxGeometry x="135" y="180" width="120" height="60" as="geometry" />
        </mxCell>
        <mxCell id="4RNeQEIGDZSL15L13sz--30" value="" style="edgeStyle=orthogonalEdgeStyle;rounded=0;orthogonalLoop=1;jettySize=auto;html=1;" edge="1" parent="1" source="4RNeQEIGDZSL15L13sz--29" target="4RNeQEIGDZSL15L13sz--20">
          <mxGeometry relative="1" as="geometry" />
        </mxCell>
        <mxCell id="4RNeQEIGDZSL15L13sz--29" value="web reverse proxy&lt;br&gt;service" style="rounded=0;whiteSpace=wrap;html=1;" vertex="1" parent="1">
          <mxGeometry x="135" y="284" width="120" height="60" as="geometry" />
        </mxCell>
        <mxCell id="4RNeQEIGDZSL15L13sz--32" value="&lt;div&gt;autoconfig argocd application&lt;/div&gt;" style="rounded=0;whiteSpace=wrap;html=1;verticalAlign=top;" vertex="1" parent="1">
          <mxGeometry x="360" y="140" width="190" height="230" as="geometry" />
        </mxCell>
        <mxCell id="4RNeQEIGDZSL15L13sz--35" value="" style="edgeStyle=orthogonalEdgeStyle;rounded=0;orthogonalLoop=1;jettySize=auto;html=1;" edge="1" parent="1" source="4RNeQEIGDZSL15L13sz--33" target="4RNeQEIGDZSL15L13sz--34">
          <mxGeometry relative="1" as="geometry" />
        </mxCell>
        <mxCell id="4RNeQEIGDZSL15L13sz--33" value="Configuration object configmap" style="rounded=0;whiteSpace=wrap;html=1;" vertex="1" parent="1">
          <mxGeometry x="395" y="180" width="120" height="60" as="geometry" />
        </mxCell>
        <mxCell id="4RNeQEIGDZSL15L13sz--36" value="api calls" style="edgeStyle=orthogonalEdgeStyle;rounded=0;orthogonalLoop=1;jettySize=auto;html=1;entryX=0;entryY=0.25;entryDx=0;entryDy=0;" edge="1" parent="1" source="4RNeQEIGDZSL15L13sz--34" target="4RNeQEIGDZSL15L13sz--3">
          <mxGeometry relative="1" as="geometry" />
        </mxCell>
        <mxCell id="4RNeQEIGDZSL15L13sz--34" value="configuration job" style="shape=process;whiteSpace=wrap;html=1;backgroundOutline=1;" vertex="1" parent="1">
          <mxGeometry x="395" y="284" width="120" height="60" as="geometry" />
        </mxCell>
        <mxCell id="4RNeQEIGDZSL15L13sz--40" value="ingress" style="edgeStyle=orthogonalEdgeStyle;rounded=0;orthogonalLoop=1;jettySize=auto;html=1;entryX=0.5;entryY=0;entryDx=0;entryDy=0;dashed=1;" edge="1" parent="1" source="4RNeQEIGDZSL15L13sz--39" target="4RNeQEIGDZSL15L13sz--28">
          <mxGeometry relative="1" as="geometry" />
        </mxCell>
        <mxCell id="4RNeQEIGDZSL15L13sz--39" value="End user" style="shape=umlActor;verticalLabelPosition=bottom;verticalAlign=top;html=1;outlineConnect=0;" vertex="1" parent="1">
          <mxGeometry x="180" y="-20" width="30" height="60" as="geometry" />
        </mxCell>
        <mxCell id="4RNeQEIGDZSL15L13sz--44" value="ingress" style="edgeStyle=orthogonalEdgeStyle;rounded=0;orthogonalLoop=1;jettySize=auto;html=1;dashed=1;" edge="1" parent="1" source="4RNeQEIGDZSL15L13sz--43" target="4RNeQEIGDZSL15L13sz--6">
          <mxGeometry relative="1" as="geometry" />
        </mxCell>
        <mxCell id="4RNeQEIGDZSL15L13sz--43" value="Admin" style="shape=umlActor;verticalLabelPosition=bottom;verticalAlign=top;html=1;outlineConnect=0;" vertex="1" parent="1">
          <mxGeometry x="700" y="-20" width="30" height="60" as="geometry" />
        </mxCell>
        <mxCell id="4RNeQEIGDZSL15L13sz--47" value="demo app deployment" style="shape=process;whiteSpace=wrap;html=1;backgroundOutline=1;" vertex="1" parent="1">
          <mxGeometry x="-115" y="400" width="120" height="60" as="geometry" />
        </mxCell>
        <mxCell id="4RNeQEIGDZSL15L13sz--50" value="&lt;div&gt;common-verify argocd application&lt;/div&gt;" style="rounded=0;whiteSpace=wrap;html=1;verticalAlign=top;" vertex="1" parent="1">
          <mxGeometry x="-150" y="140" width="190" height="130" as="geometry" />
        </mxCell>
        <mxCell id="4RNeQEIGDZSL15L13sz--51" value="namespace, operatorgroup, ..." style="rounded=0;whiteSpace=wrap;html=1;" vertex="1" parent="1">
          <mxGeometry x="-115" y="180" width="120" height="60" as="geometry" />
        </mxCell>
        <mxCell id="4RNeQEIGDZSL15L13sz--55" value="verify-directory-operator argocd application&lt;div&gt;&lt;br&gt;&lt;/div&gt;" style="rounded=0;whiteSpace=wrap;html=1;verticalAlign=top;" vertex="1" parent="1">
          <mxGeometry x="100" y="860" width="190" height="400" as="geometry" />
        </mxCell>
        <mxCell id="4RNeQEIGDZSL15L13sz--64" value="instantiate" style="edgeStyle=orthogonalEdgeStyle;rounded=0;orthogonalLoop=1;jettySize=auto;html=1;dashed=1;dashPattern=8 8;" edge="1" parent="1" source="4RNeQEIGDZSL15L13sz--56" target="4RNeQEIGDZSL15L13sz--63">
          <mxGeometry relative="1" as="geometry" />
        </mxCell>
        <mxCell id="4RNeQEIGDZSL15L13sz--56" value="Verify Directory&lt;br&gt;operator" style="shape=process;whiteSpace=wrap;html=1;backgroundOutline=1;" vertex="1" parent="1">
          <mxGeometry x="135" y="1160" width="120" height="60" as="geometry" />
        </mxCell>
        <mxCell id="4RNeQEIGDZSL15L13sz--57" value="" style="edgeStyle=orthogonalEdgeStyle;rounded=0;orthogonalLoop=1;jettySize=auto;html=1;" edge="1" parent="1" source="4RNeQEIGDZSL15L13sz--58" target="4RNeQEIGDZSL15L13sz--56">
          <mxGeometry relative="1" as="geometry" />
        </mxCell>
        <mxCell id="4RNeQEIGDZSL15L13sz--58" value="Verify Directory operator subscription" style="rounded=0;whiteSpace=wrap;html=1;" vertex="1" parent="1">
          <mxGeometry x="135" y="960" width="120" height="60" as="geometry" />
        </mxCell>
        <mxCell id="4RNeQEIGDZSL15L13sz--60" value="instantiate" style="edgeStyle=orthogonalEdgeStyle;rounded=0;orthogonalLoop=1;jettySize=auto;html=1;entryX=1;entryY=0.75;entryDx=0;entryDy=0;dashed=1;dashPattern=8 8;" edge="1" parent="1" source="4RNeQEIGDZSL15L13sz--9" target="4RNeQEIGDZSL15L13sz--20">
          <mxGeometry relative="1" as="geometry">
            <Array as="points">
              <mxPoint x="310" y="510" />
              <mxPoint x="310" y="445" />
            </Array>
          </mxGeometry>
        </mxCell>
        <mxCell id="4RNeQEIGDZSL15L13sz--68" value="" style="edgeStyle=orthogonalEdgeStyle;rounded=0;orthogonalLoop=1;jettySize=auto;html=1;" edge="1" parent="1" source="4RNeQEIGDZSL15L13sz--63" target="4RNeQEIGDZSL15L13sz--65">
          <mxGeometry relative="1" as="geometry" />
        </mxCell>
        <mxCell id="4RNeQEIGDZSL15L13sz--63" value="verify-directory instance" style="shape=process;whiteSpace=wrap;html=1;backgroundOutline=1;" vertex="1" parent="1">
          <mxGeometry x="-115" y="1160" width="120" height="60" as="geometry" />
        </mxCell>
        <mxCell id="4RNeQEIGDZSL15L13sz--65" value="isvd-isvd-master-pvc deployment" style="shape=process;whiteSpace=wrap;html=1;backgroundOutline=1;" vertex="1" parent="1">
          <mxGeometry x="-115" y="1050" width="120" height="60" as="geometry" />
        </mxCell>
        <mxCell id="4RNeQEIGDZSL15L13sz--66" value="directory PVC" style="shape=cylinder3;whiteSpace=wrap;html=1;boundedLbl=1;backgroundOutline=1;size=15;" vertex="1" parent="1">
          <mxGeometry x="-85" y="930" width="60" height="80" as="geometry" />
        </mxCell>
        <mxCell id="4RNeQEIGDZSL15L13sz--67" style="edgeStyle=orthogonalEdgeStyle;rounded=0;orthogonalLoop=1;jettySize=auto;html=1;" edge="1" parent="1" source="4RNeQEIGDZSL15L13sz--65" target="4RNeQEIGDZSL15L13sz--66">
          <mxGeometry relative="1" as="geometry" />
        </mxCell>
      </root>
    </mxGraphModel>
  </diagram>
</mxfile>
